<svg width="90" height="90" viewBox="0 0 90 90" fill="none" xmlns="http://www.w3.org/2000/svg">
<rect width="90" height="90" rx="45" fill="#F0C149"/>
<g clip-path="url(#clip0_0_78)">
<path d="M39.9512 20.4883C30.2442 22.3828 22.4219 30.1856 20.5078 39.8633C16.8946 58.125 33.3692 71.7383 45.7813 69.8145C49.8047 69.1895 51.7774 64.4824 49.9317 60.8594C47.6758 56.4258 50.8985 51.25 55.8789 51.25H63.6621C67.1582 51.25 69.9903 48.3594 70 44.8731C69.9512 29.4824 55.9473 17.3731 39.9512 20.4883ZM29.375 51.25C27.6465 51.25 26.25 49.8535 26.25 48.125C26.25 46.3965 27.6465 45 29.375 45C31.1035 45 32.5 46.3965 32.5 48.125C32.5 49.8535 31.1035 51.25 29.375 51.25ZM32.5 38.75C30.7715 38.75 29.375 37.3535 29.375 35.625C29.375 33.8965 30.7715 32.5 32.5 32.5C34.2285 32.5 35.625 33.8965 35.625 35.625C35.625 37.3535 34.2285 38.75 32.5 38.75ZM45 32.5C43.2715 32.5 41.875 31.1035 41.875 29.375C41.875 27.6465 43.2715 26.25 45 26.25C46.7285 26.25 48.125 27.6465 48.125 29.375C48.125 31.1035 46.7285 32.5 45 32.5ZM57.5 38.75C55.7715 38.75 54.375 37.3535 54.375 35.625C54.375 33.8965 55.7715 32.5 57.5 32.5C59.2285 32.5 60.625 33.8965 60.625 35.625C60.625 37.3535 59.2285 38.75 57.5 38.75Z" fill="white"/>
</g>
<defs>
<clipPath id="clip0_0_78">
<rect width="50" height="50" fill="white" transform="translate(20 20)"/>
</clipPath>
</defs>
</svg>
