<svg width="133" height="40" viewBox="0 0 133 40" fill="none" xmlns="http://www.w3.org/2000/svg">
<circle cx="20" cy="20" r="19.5" stroke="white"/>
<path d="M23.52 13.04V22.84C23.52 24.2 23.1267 25.26 22.34 26.02C21.5533 26.7667 20.5 27.14 19.18 27.14C17.8467 27.14 16.7667 26.7533 15.94 25.98C15.1267 25.2067 14.72 24.1267 14.72 22.74H17.52C17.5333 23.34 17.6733 23.8067 17.94 24.14C18.22 24.4733 18.62 24.64 19.14 24.64C19.6467 24.64 20.0333 24.48 20.3 24.16C20.5667 23.84 20.7 23.4 20.7 22.84V13.04H23.52Z" fill="white"/>
<path d="M54.08 13.1V23.12C54.08 24.36 53.7 25.34 52.94 26.06C52.1933 26.78 51.2067 27.14 49.98 27.14C48.7533 27.14 47.76 26.78 47 26.06C46.2533 25.34 45.88 24.36 45.88 23.12H48.18C48.1933 23.7333 48.3467 24.22 48.64 24.58C48.9467 24.94 49.3933 25.12 49.98 25.12C50.5667 25.12 51.0133 24.94 51.32 24.58C51.6267 24.2067 51.78 23.72 51.78 23.12V13.1H54.08ZM62.5691 27.18C61.5291 27.18 60.5891 26.9467 59.7491 26.48C58.9091 26 58.2491 25.3333 57.7691 24.48C57.2891 23.6133 57.0491 22.6133 57.0491 21.48C57.0491 20.36 57.2957 19.3667 57.7891 18.5C58.2824 17.6333 58.9557 16.9667 59.8091 16.5C60.6624 16.0333 61.6157 15.8 62.6691 15.8C63.7224 15.8 64.6757 16.0333 65.5291 16.5C66.3824 16.9667 67.0557 17.6333 67.5491 18.5C68.0424 19.3667 68.2891 20.36 68.2891 21.48C68.2891 22.6 68.0357 23.5933 67.5291 24.46C67.0224 25.3267 66.3291 26 65.4491 26.48C64.5824 26.9467 63.6224 27.18 62.5691 27.18ZM62.5691 25.2C63.1557 25.2 63.7024 25.06 64.2091 24.78C64.7291 24.5 65.1491 24.08 65.4691 23.52C65.7891 22.96 65.9491 22.28 65.9491 21.48C65.9491 20.68 65.7957 20.0067 65.4891 19.46C65.1824 18.9 64.7757 18.48 64.2691 18.2C63.7624 17.92 63.2157 17.78 62.6291 17.78C62.0424 17.78 61.4957 17.92 60.9891 18.2C60.4957 18.48 60.1024 18.9 59.8091 19.46C59.5157 20.0067 59.3691 20.68 59.3691 21.48C59.3691 22.6667 59.6691 23.5867 60.2691 24.24C60.8824 24.88 61.6491 25.2 62.5691 25.2ZM74.803 24.96L77.923 15.98H80.343L76.143 27H73.423L69.243 15.98H71.683L74.803 24.96ZM81.3064 21.44C81.3064 20.3333 81.5331 19.3533 81.9864 18.5C82.4531 17.6467 83.0797 16.9867 83.8664 16.52C84.6664 16.04 85.5464 15.8 86.5064 15.8C87.3731 15.8 88.1264 15.9733 88.7664 16.32C89.4197 16.6533 89.9397 17.0733 90.3264 17.58V15.98H92.6264V27H90.3264V25.36C89.9397 25.88 89.4131 26.3133 88.7464 26.66C88.0797 27.0067 87.3197 27.18 86.4664 27.18C85.5197 27.18 84.6531 26.94 83.8664 26.46C83.0797 25.9667 82.4531 25.2867 81.9864 24.42C81.5331 23.54 81.3064 22.5467 81.3064 21.44ZM90.3264 21.48C90.3264 20.72 90.1664 20.06 89.8464 19.5C89.5397 18.94 89.1331 18.5133 88.6264 18.22C88.1197 17.9267 87.5731 17.78 86.9864 17.78C86.3997 17.78 85.8531 17.9267 85.3464 18.22C84.8397 18.5 84.4264 18.92 84.1064 19.48C83.7997 20.0267 83.6464 20.68 83.6464 21.44C83.6464 22.2 83.7997 22.8667 84.1064 23.44C84.4264 24.0133 84.8397 24.4533 85.3464 24.76C85.8664 25.0533 86.4131 25.2 86.9864 25.2C87.5731 25.2 88.1197 25.0533 88.6264 24.76C89.1331 24.4667 89.5397 24.04 89.8464 23.48C90.1664 22.9067 90.3264 22.24 90.3264 21.48ZM101.181 15.8C102.048 15.8 102.821 15.98 103.501 16.34C104.194 16.7 104.734 17.2333 105.121 17.94C105.508 18.6467 105.701 19.5 105.701 20.5V27H103.441V20.84C103.441 19.8533 103.194 19.1 102.701 18.58C102.208 18.0467 101.534 17.78 100.681 17.78C99.8278 17.78 99.1478 18.0467 98.6411 18.58C98.1478 19.1 97.9011 19.8533 97.9011 20.84V27H95.6211V15.98H97.9011V17.24C98.2744 16.7867 98.7478 16.4333 99.3211 16.18C99.9078 15.9267 100.528 15.8 101.181 15.8ZM107.849 21.48C107.849 20.3467 108.076 19.3533 108.529 18.5C108.996 17.6333 109.636 16.9667 110.449 16.5C111.263 16.0333 112.196 15.8 113.249 15.8C114.583 15.8 115.683 16.12 116.549 16.76C117.429 17.3867 118.023 18.2867 118.329 19.46H115.869C115.669 18.9133 115.349 18.4867 114.909 18.18C114.469 17.8733 113.916 17.72 113.249 17.72C112.316 17.72 111.569 18.0533 111.009 18.72C110.463 19.3733 110.189 20.2933 110.189 21.48C110.189 22.6667 110.463 23.5933 111.009 24.26C111.569 24.9267 112.316 25.26 113.249 25.26C114.569 25.26 115.443 24.68 115.869 23.52H118.329C118.009 24.64 117.409 25.5333 116.529 26.2C115.649 26.8533 114.556 27.18 113.249 27.18C112.196 27.18 111.263 26.9467 110.449 26.48C109.636 26 108.996 25.3333 108.529 24.48C108.076 23.6133 107.849 22.6133 107.849 21.48ZM119.842 21.44C119.842 20.3333 120.068 19.3533 120.522 18.5C120.988 17.6467 121.615 16.9867 122.402 16.52C123.202 16.04 124.082 15.8 125.042 15.8C125.908 15.8 126.662 15.9733 127.302 16.32C127.955 16.6533 128.475 17.0733 128.862 17.58V15.98H131.162V27H128.862V25.36C128.475 25.88 127.948 26.3133 127.282 26.66C126.615 27.0067 125.855 27.18 125.002 27.18C124.055 27.18 123.188 26.94 122.402 26.46C121.615 25.9667 120.988 25.2867 120.522 24.42C120.068 23.54 119.842 22.5467 119.842 21.44ZM128.862 21.48C128.862 20.72 128.702 20.06 128.382 19.5C128.075 18.94 127.668 18.5133 127.162 18.22C126.655 17.9267 126.108 17.78 125.522 17.78C124.935 17.78 124.388 17.9267 123.882 18.22C123.375 18.5 122.962 18.92 122.642 19.48C122.335 20.0267 122.182 20.68 122.182 21.44C122.182 22.2 122.335 22.8667 122.642 23.44C122.962 24.0133 123.375 24.4533 123.882 24.76C124.402 25.0533 124.948 25.2 125.522 25.2C126.108 25.2 126.655 25.0533 127.162 24.76C127.668 24.4667 128.075 24.04 128.382 23.48C128.702 22.9067 128.862 22.24 128.862 21.48Z" fill="white"/>
</svg>
