<svg width="90" height="90" viewBox="0 0 90 90" fill="none" xmlns="http://www.w3.org/2000/svg">
<rect width="90" height="90" rx="45" fill="#286F6C"/>
<path d="M68.75 57.5H49.8078C49.75 59.0477 48.6586 60 47.25 60H42.5C41.0398 60 39.9203 58.6352 39.9398 57.5H21.25C20.5625 57.5 20 58.0625 20 58.75V60C20 62.75 22.25 65 25 65H65C67.75 65 70 62.75 70 60V58.75C70 58.0625 69.4375 57.5 68.75 57.5ZM65 28.75C65 26.6875 63.3125 25 61.25 25H28.75C26.6875 25 25 26.6875 25 28.75V55H65V28.75ZM60 50H30V30H60V50Z" fill="white"/>
</svg>
