<svg width="20" height="18" viewBox="0 0 20 18" fill="none" xmlns="http://www.w3.org/2000/svg">
<path d="M5.55556 15.6666C4.66667 15.6666 3.77778 14.8889 3.33333 14.5555C1.11111 13 0.444444 12.4444 0 12.1111V16.7778C0 17.3913 0.497569 17.8889 1.11111 17.8889H10C10.6135 17.8889 11.1111 17.3913 11.1111 16.7778V12.1111C10.6667 12.4444 10 13 7.77778 14.5555C7.33333 14.8889 6.44444 15.6666 5.55556 15.6666ZM10 8.99997H1.11111C0.497569 8.99997 0 9.49754 0 10.1111V10.6666C0.888889 11.3333 0.777778 11.3333 4 13.6666C4.33333 13.8889 5 14.5555 5.55556 14.5555C6.11111 14.5555 6.77778 13.8889 7.11111 13.7778C10.3333 11.4444 10.2222 11.4444 11.1111 10.7778V10.1111C11.1111 9.49754 10.6135 8.99997 10 8.99997ZM18.8889 5.66664H7.77778C7.16424 5.66664 6.66667 6.16421 6.66667 6.77775V7.88886H10C11.1531 7.88886 12.1038 8.7715 12.2122 9.8965L12.2222 9.88886V14.5555H18.8889C19.5024 14.5555 20 14.058 20 13.4444V6.77775C20 6.16421 19.5024 5.66664 18.8889 5.66664ZM17.7778 10.1111H15.5556V7.88886H17.7778V10.1111ZM5.55556 6.77775C5.55556 5.5524 6.55243 4.55553 7.77778 4.55553H15.5556V1.2222C15.5556 0.608653 15.058 0.111084 14.4444 0.111084H3.33333C2.71979 0.111084 2.22222 0.608653 2.22222 1.2222V7.88886H5.55556V6.77775Z" fill="white"/>
</svg>
