<svg width="90" height="90" viewBox="0 0 90 90" fill="none" xmlns="http://www.w3.org/2000/svg">
<rect width="90" height="90" rx="45" fill="#F26440"/>
<g clip-path="url(#clip0_0_94)">
<path d="M30 32.5C32.0703 32.5 33.75 30.8203 33.75 28.75C33.75 26.6797 32.0703 25 30 25C27.9297 25 26.25 26.6797 26.25 28.75C26.25 30.8203 27.9297 32.5 30 32.5ZM60 32.5C62.0703 32.5 63.75 30.8203 63.75 28.75C63.75 26.6797 62.0703 25 60 25C57.9297 25 56.25 26.6797 56.25 28.75C56.25 30.8203 57.9297 32.5 60 32.5ZM69.8203 61.5703L66.3828 52.9766L63.1719 56.6016L63.0156 58.0234L65.1797 63.4297C65.5703 64.4062 66.5078 65 67.5 65C67.8125 65 68.125 64.9453 68.4297 64.8203C69.711 64.3047 70.336 62.8516 69.8203 61.5703ZM67.1484 45.1797L65.7031 38.9141C65.3438 37.3516 64.25 36.0391 62.7734 35.4062C61.3281 34.7812 59.7266 34.8828 58.3906 35.6641C56.6172 36.7109 55.2891 38.3594 54.6328 40.3047L53.75 42.9531L52.5 43.75V36.25C52.5 35.5625 51.9375 35 51.25 35H38.75C38.0625 35 37.5 35.5625 37.5 36.25V43.75L36.2422 42.9531L35.3594 40.3047C34.7109 38.3516 33.375 36.7109 31.6016 35.6641C30.2578 34.8828 28.6641 34.7812 27.2188 35.4062C25.7422 36.0391 24.6484 37.3516 24.2891 38.9141L22.8516 45.1797C22.4922 46.7422 22.9063 48.3984 23.9766 49.6094L29.2266 55.5391L30.0156 62.7734C30.1563 64.0469 31.2344 65 32.5 65C32.5938 65 32.6797 64.9922 32.7734 64.9844C34.1484 64.8359 35.1328 63.6016 34.9844 62.2266L34.1953 54.9766C34.0781 53.9609 33.6563 53.0156 32.9766 52.2422L29.5938 48.4141L30.9688 42.9219L31.5 44.5156C31.8203 45.4922 32.4297 46.3438 33.4141 47.0625L37.4063 49.6016C37.7656 49.8281 38.3516 49.9609 38.75 49.9922H51.25C51.6485 49.9609 52.2344 49.8281 52.5938 49.6016L56.586 47.0625C57.5703 46.3438 58.1797 45.5 58.5 44.5156L59.0313 42.9219L60.4063 48.4141L57.0235 52.2422C56.3438 53.0156 55.9219 53.9609 55.8047 54.9766L55.0156 62.2266C54.8672 63.6016 55.8594 64.8359 57.2266 64.9844C57.3203 64.9922 57.4063 65 57.5 65C58.7578 65 59.8438 64.0547 59.9844 62.7734L60.7735 55.5391L66.0234 49.6094C67.0859 48.3984 67.5078 46.7422 67.1484 45.1797ZM23.6172 52.9766L20.1797 61.5703C19.6641 62.8516 20.2891 64.3047 21.5703 64.8203C22.8828 65.3359 24.3125 64.6875 24.8203 63.4297L26.9844 58.0234L26.8281 56.6016L23.6172 52.9766Z" fill="white"/>
</g>
<defs>
<clipPath id="clip0_0_94">
<rect width="50" height="50" fill="white" transform="translate(20 20)"/>
</clipPath>
</defs>
</svg>
